<svg width="85" height="85" viewBox="0 0 85 85" fill="none" xmlns="http://www.w3.org/2000/svg">
    <circle cx="42.9297" cy="42.1182" r="42" fill="#F0F0F0" />
    <path
        d="M30.9297 52.1182H43.4297V54.6182H28.4297V30.8682C28.4297 28.8007 30.1122 27.1182 32.1797 27.1182H52.1797C54.2472 27.1182 55.9297 28.8007 55.9297 30.8682V42.1182H53.4297V30.8682C53.4297 30.1782 52.8684 29.6182 52.1797 29.6182H32.1797C31.4909 29.6182 30.9297 30.1782 30.9297 30.8682V43.5332L36.2797 38.1832C37.6534 36.8107 39.8872 36.8082 41.2609 38.1832L48.4284 45.3519V47.1194H46.6609L39.4934 39.9519C39.0947 39.5544 38.4459 39.5544 38.0472 39.9519L30.9297 47.0694V52.1182ZM47.1797 31.4932C49.2472 31.4932 50.9297 33.1757 50.9297 35.2432C50.9297 37.3107 49.2472 38.9932 47.1797 38.9932C45.1122 38.9932 43.4297 37.3107 43.4297 35.2432C43.4297 33.1757 45.1122 31.4932 47.1797 31.4932ZM47.1797 33.9932C46.4909 33.9932 45.9297 34.5532 45.9297 35.2432C45.9297 35.9332 46.4909 36.4932 47.1797 36.4932C47.8684 36.4932 48.4297 35.9332 48.4297 35.2432C48.4297 34.5532 47.8684 33.9932 47.1797 33.9932ZM58.4297 49.6182H53.4297V44.6182H50.9297V49.6182H45.9297V52.1182H50.9297V57.1182H53.4297V52.1182H58.4297V49.6182Z"
        fill="#A3A3A3" />
</svg>
    